<svg width="61" height="34" viewBox="0 0 61 34" fill="none" xmlns="http://www.w3.org/2000/svg">
<path d="M43.9737 28.9823C42.5499 31.4056 40.3083 32.6173 37.2489 32.6173C35.2799 32.6173 33.6138 32.1023 32.2507 31.0724C30.8876 30.0425 29.9788 28.4673 29.5244 26.3469C28.343 28.3764 26.4498 29.9213 23.8447 30.9815C21.2396 32.0417 18.3467 32.5718 15.1661 32.5718C7.07815 32.5718 3.03418 28.7854 3.03418 21.2124V4.26408C3.03418 3.62795 3.24622 3.09784 3.67031 2.67375C4.12469 2.21938 4.66994 1.99219 5.30607 1.99219C5.9422 1.99219 6.47231 2.21938 6.89639 2.67375C7.35077 3.09784 7.57796 3.62795 7.57796 4.26408V13.079C9.18343 11.4433 11.1827 10.6254 13.5758 10.6254C15.4538 10.6254 17.1199 11.0798 18.5739 11.9885C20.0582 12.867 21.2093 14.0938 22.0272 15.669C22.8754 17.2441 23.2994 19.0314 23.2994 21.0306C23.2994 22.4544 23.0874 23.7872 22.6633 25.0292C22.2392 26.2711 21.6182 27.3616 20.8004 28.3007C23.1934 27.6646 25.117 26.468 26.571 24.7111C28.025 22.9542 28.752 20.8489 28.752 18.3952V12.8973C28.752 12.2611 28.964 11.731 29.3881 11.3069C29.8425 10.8526 30.3877 10.6254 31.0239 10.6254C31.66 10.6254 32.1901 10.8526 32.6142 11.3069C33.0686 11.731 33.2958 12.2611 33.2958 12.8973V22.5301C33.2958 24.6202 33.629 26.1651 34.2954 27.1647C34.9618 28.1644 36.0069 28.6642 37.4306 28.6642C39.0664 28.6642 40.3235 28.0886 41.202 26.9375C42.1107 25.7562 42.5651 24.075 42.5651 21.894V14.9874H39.6571C39.0209 14.9874 38.4757 14.7754 38.0213 14.3513C37.5972 13.9272 37.3852 13.4122 37.3852 12.8064C37.3852 12.2006 37.5972 11.6856 38.0213 11.2615C38.4757 10.8374 39.0209 10.6254 39.6571 10.6254H42.5651V4.30952C42.5651 3.67339 42.7771 3.14328 43.2012 2.71919C43.6556 2.26481 44.2008 2.03762 44.837 2.03762C45.4731 2.03762 46.0032 2.26481 46.4273 2.71919C46.8817 3.14328 47.1089 3.67339 47.1089 4.30952V10.6254H53.0158C53.6519 10.6254 54.182 10.8374 54.6061 11.2615C55.0605 11.6856 55.2877 12.2006 55.2877 12.8064C55.2877 13.4122 55.0605 13.9272 54.6061 14.3513C54.182 14.7754 53.6519 14.9874 53.0158 14.9874H47.1089V22.4846C47.1089 26.2105 48.1539 28.0735 50.2441 28.0735C51.274 28.0735 52.1222 27.6797 52.7886 26.8921C53.1521 26.468 53.4853 26.15 53.7882 25.9379C54.0911 25.6956 54.4395 25.5744 54.8333 25.5744C55.4694 25.5744 55.9995 25.7865 56.4236 26.2105C56.8477 26.6043 57.0598 27.1193 57.0598 27.7554C57.0598 28.543 56.7417 29.3155 56.1056 30.0728C55.4694 30.8301 54.6213 31.4359 53.561 31.8903C52.5008 32.3749 51.38 32.6173 50.1986 32.6173C48.8052 32.6173 47.5784 32.2992 46.5182 31.6631C45.4883 31.0572 44.6401 30.1636 43.9737 28.9823ZM32.796 6.26334C32.3113 6.74801 31.7206 6.99035 31.0239 6.99035C30.3272 6.99035 29.7365 6.74801 29.2518 6.26334C28.7671 5.77867 28.5248 5.20313 28.5248 4.53671C28.5248 3.83999 28.7671 3.2493 29.2518 2.76463C29.7668 2.27996 30.3575 2.03762 31.0239 2.03762C31.7206 2.03762 32.3113 2.27996 32.796 2.76463C33.2806 3.2493 33.523 3.83999 33.523 4.53671C33.523 5.20313 33.2806 5.77867 32.796 6.26334ZM9.21372 26.3014C10.3042 27.4828 11.6674 28.0735 13.3031 28.0735C14.848 28.0735 16.1354 27.4828 17.1653 26.3014C18.1953 25.12 18.7102 23.56 18.7102 21.6213C18.7102 19.7129 18.1801 18.1529 17.1199 16.9412C16.0597 15.7296 14.742 15.1237 13.1668 15.1237C11.5916 15.1237 10.2739 15.7144 9.21372 16.8958C8.15351 18.0772 7.6234 19.6221 7.6234 21.5304C7.6234 23.4994 8.15351 25.0897 9.21372 26.3014Z" fill="white"/>
</svg>
