<svg id="Layer_1" enable-background="new 0 0 278.353 246.598" height="300" viewBox="0 0 278.353 246.598" width="300" xmlns="http://www.w3.org/2000/svg" version="1.1" xmlns:xlink="http://www.w3.org/1999/xlink" xmlns:svgjs="http://svgjs.dev/svgjs"><g width="100%" height="100%" transform="matrix(1,0,0,1,0,0)"><g><path d="m46.203 154.187c-25.521.008-46.203 20.685-46.203 46.207 0 18.334 10.699 34.118 26.176 41.586 6.061 2.926 12.844 4.613 20.027 4.618 22.396-.01 41.053-15.936 45.285-37.077h64.127l36.885-72.666 13.393 25.549c-12.041 8.338-19.939 22.232-19.939 37.99 0 25.517 20.684 46.194 46.205 46.204 25.516-.01 46.195-20.687 46.195-46.204 0-25.521-20.68-46.198-46.195-46.207-4.875 0-9.566.766-13.975 2.166l-41.215-78.598h-30.941v5.508c2.014-.18 4.096-.409 6.283-.718.465-.067.939-.099 1.407-.099 4.947 0 9.198 3.698 9.891 8.603.019.133.022.264.036.396h5.046l6.883 13.121h-58.639l-1.995 4.655 32.015 16.304c6.388 3.256 9.421 10.57 7.213 17.391l-15.331 47.333c-1.945 6.002-7.488 10.036-13.794 10.036-1.515 0-3.019-.238-4.471-.71-3.684-1.193-6.683-3.751-8.445-7.201-1.761-3.45-2.075-7.377-.879-11.061l11.519-35.563-33.824-17.227h-68.98l-10.266 17.293 56.613.001c11.096 7.072 30.873 22.652 34.963 45.451h-9.785c-4.232-21.146-22.888-37.073-45.285-37.081zm26.381 55.334c-3.797 10.936-14.152 18.797-26.381 18.816-15.436-.023-27.924-12.515-27.955-27.942.031-15.441 12.52-27.922 27.955-27.955 12.228.027 22.59 7.885 26.381 18.83h-27.521v18.252h27.521zm141.893-30.754 13.898 26.516 12.125-6.355-13.615-25.968c1.707-.329 3.471-.517 5.273-.521 15.428.033 27.924 12.514 27.939 27.955-.016 15.428-12.512 27.92-27.939 27.942-15.438-.023-27.924-12.515-27.955-27.942.018-8.726 4.016-16.502 10.274-21.627z" fill="#ffffff" fill-opacity="1" data-original-color="#000000ff" stroke="none" stroke-opacity="1"/><path d="m213.619 115.973v-27.95c-7.719 0-13.975 6.257-13.975 13.977 0 1.371.258 2.672.625 3.93 1.71 5.788 7.004 10.043 13.35 10.043z" fill="#ffffff" fill-opacity="1" data-original-color="#000000ff" stroke="none" stroke-opacity="1"/><ellipse cx="145.704" cy="22.498" rx="22.494" ry="22.495" transform="matrix(.477 -.879 .879 .477 56.39 139.796)" fill="#ffffff" fill-opacity="1" data-original-color="#000000ff" stroke="none" stroke-opacity="1"/><path d="m113.149 181.929c-2.129 6.566 1.471 13.616 8.039 15.744 1.279.414 2.578.611 3.854.611 5.274.001 10.178-3.364 11.891-8.652l15.331-47.333c1.895-5.851-.739-12.2-6.218-14.992l-36.952-18.82c.862-3.602 1.997-7.206 3.294-10.76-5.04-3.117-8.954-7.756-10.879-12.991-1.203-3.172-1.818-6.672-1.82-10.387.042-4.214.812-10.741 4.245-18.02l.12-.257.024-.057.049-.097c1.712-3.377 5.131-5.476 8.921-5.476 1.561 0 3.126.376 4.524 1.087 4.895 2.49 6.868 8.506 4.4 13.413l-.014.033-.028.061c-.048.097-.123.267-.223.498-.17.389-.498 1.188-.838 2.227-.749 2.259-1.19 4.714-1.18 6.577-.002 1.275.178 2.413.52 3.306.143.364.31.709.533 1.054 2.049-4.147 4.057-8.027 5.792-11.511 5.408-8.834 4.953-21.315-2.711-25.633-7.666-4.318-20.828-3.135-29.57 9.643-11.918 17.642-16.814 29.913-20.22 52.017-.826 10.723 3.275 16.359 8.697 19.624.64.506 1.337.959 2.092 1.343v-.002l40.372 20.563z" fill="#ffffff" fill-opacity="1" data-original-color="#000000ff" stroke="none" stroke-opacity="1"/><path d="m118.343 78.358c-.431-1.124-.655-2.491-.653-4.012-.012-2.433.606-5.181 1.28-7.206.33-1.013.664-1.85.9-2.398.118-.273.208-.476.265-.591.026-.059.045-.095.05-.109v-.001c1.981-3.935.411-8.732-3.52-10.729-3.937-2.002-8.754-.431-10.754 3.508l-.002-.002c-.22.583-4.121 7.82-4.218 17.527.002 3.029.427 6.35 1.697 9.698 1.854 5.038 5.905 9.938 11.814 12.981 5.909 3.09 13.381 4.621 22.974 4.629 4.928 0 10.435-.413 16.649-1.288 4.374-.617 7.421-4.664 6.805-9.038-.619-4.376-4.663-7.421-9.04-6.805-5.602.791-10.384 1.132-14.414 1.13-10.564.006-15.593-2.358-17.705-4.259-1.101-.974-1.685-1.902-2.128-3.035z" fill="#ffffff" fill-opacity="1" data-original-color="#000000ff" stroke="none" stroke-opacity="1"/></g></g></svg>