<svg id="Capa_1" enable-background="new 0 0 274.839 274.839" height="300" viewBox="0 0 274.839 274.839" width="300" xmlns="http://www.w3.org/2000/svg" version="1.1" xmlns:xlink="http://www.w3.org/1999/xlink" xmlns:svgjs="http://svgjs.dev/svgjs"><g width="100%" height="100%" transform="matrix(1,0,0,1,0,0)"><g><path d="m265.677 211.553v-5.423c-.024-5.803-3.69-10.965-9.161-12.899v-28.327h4.581c5.06 0 9.161-4.102 9.161-9.161v-13.743c-.024-.19-.062-.379-.115-.563-.029-.311-.091-.618-.183-.916-.105-.27-.234-.531-.385-.779-.13-.251-.283-.489-.458-.71-.216-.235-.457-.446-.719-.628-.133-.133-.276-.257-.426-.371l-28.895-16.513c-2.781-1.588-5.927-2.423-9.129-2.423h-10.077v-96.194c-.015-12.643-10.26-22.888-22.903-22.903h-119.097c-12.643.015-22.888 10.26-22.903 22.903v18.323h-10.078c-3.189.004-6.322.836-9.093 2.414l-28.926 16.513c-.15.114-.293.238-.426.371-.26.184-.501.395-.719.628-.175.223-.329.462-.458.715-.152.246-.281.505-.385.774-.093.298-.154.605-.183.915-.054.187-.094.379-.119.573v13.742c0 5.06 4.102 9.161 9.161 9.161h4.581v28.327c-5.471 1.934-9.137 7.096-9.161 12.899v5.423c-5.472 1.935-9.138 7.097-9.162 12.9v4.581c0 5.06 4.102 9.161 9.161 9.161h45.806v91.613c.015 12.643 10.26 22.888 22.903 22.903h119.097c12.643-.015 22.888-10.26 22.903-22.903v-13.742h45.806c5.06 0 9.161-4.102 9.161-9.161v-4.581c-.022-5.803-3.689-10.965-9.16-12.899zm-36.645-46.65v27.484h-27.484v-27.484zm-36.645 27.484h-9.161v-27.484h9.161zm-13.742 9.161h73.29c2.53 0 4.581 2.051 4.581 4.581v4.581h-82.452v-4.581c.001-2.53 2.051-4.581 4.581-4.581zm68.71-9.161h-9.161v-27.484h9.161zm4.58-36.645h-82.452v-9.161h91.613v9.161zm-17.406-26.275 13.898 7.952h-66.273l13.921-7.952c1.388-.794 2.959-1.211 4.558-1.209h29.316c1.606-.005 3.186.412 4.58 1.209zm-60.464-120.306v9.161c0 2.53-2.051 4.581-4.581 4.581h-64.129c-2.53 0-4.581-2.051-4.581-4.581v-9.161zm-133.732 42.435c1.388-.794 2.959-1.211 4.558-1.209h29.316c1.594.001 3.16.418 4.544 1.209l13.934 7.952h-66.273zm-26.591 17.114h91.613v9.161h-91.613zm77.871 45.806h-9.161v-27.484h9.161zm-45.807 0v-27.484h27.484v27.484zm-9.161-27.484v27.484h-9.161v-27.484zm-18.322 41.226c0-2.53 2.051-4.581 4.581-4.581h73.29c2.53 0 4.581 2.051 4.581 4.581v4.581h-82.452zm-9.162 18.323c0-2.53 2.051-4.581 4.581-4.581h91.613c2.53 0 4.581 2.051 4.581 4.581v4.581h-100.775zm201.549 105.354c0 7.589-6.152 13.742-13.742 13.742h-119.097c-7.589 0-13.742-6.152-13.742-13.742v-91.613h45.806c5.06 0 9.161-4.102 9.161-9.161v-4.581c-.024-5.803-3.69-10.965-9.161-12.899v-5.423c-.024-5.803-3.69-10.965-9.161-12.899v-28.327h4.581c5.06 0 9.161-4.102 9.161-9.161v-13.742c-.024-.19-.062-.379-.115-.563-.029-.311-.091-.618-.183-.916-.105-.27-.234-.531-.385-.779-.137-.252-.298-.49-.481-.71-.216-.235-.457-.446-.719-.628-.133-.133-.276-.257-.426-.371l-28.894-16.522c-2.775-1.58-5.913-2.412-9.106-2.414h-10.078v-18.323c0-7.589 6.152-13.742 13.742-13.742h13.742v9.161c0 7.589 6.152 13.742 13.742 13.742h64.129c7.589 0 13.742-6.152 13.742-13.742v-9.161h13.742c7.589 0 13.742 6.152 13.742 13.742v96.194h-10.077c-3.189.004-6.322.836-9.093 2.414l-28.927 16.513c-.15.114-.293.238-.426.371-.26.184-.501.395-.719.628-.175.223-.329.462-.458.715-.152.246-.281.505-.385.774-.093.298-.154.605-.183.916-.054.188-.094.379-.119.573v13.742c0 5.06 4.102 9.161 9.161 9.161h4.581v28.327c-5.471 1.934-9.137 7.096-9.161 12.899v5.423c-5.471 1.934-9.137 7.096-9.161 12.899v4.581c0 5.06 4.102 9.161 9.161 9.161h45.806zm-45.807-22.903v-4.581c0-2.53 2.051-4.581 4.581-4.581h91.613c2.53 0 4.581 2.051 4.581 4.581v4.581z" fill="#ffffff" fill-opacity="1" data-original-color="#000000ff" stroke="none" stroke-opacity="1"/><path d="m77.871 18.323c-2.53 0-4.581 2.051-4.581 4.581v4.581c0 2.53 2.051 4.581 4.581 4.581s4.581-2.051 4.581-4.581v-4.581c0-2.531-2.051-4.581-4.581-4.581z" fill="#ffffff" fill-opacity="1" data-original-color="#000000ff" stroke="none" stroke-opacity="1"/><path d="m196.968 32.065c2.53 0 4.581-2.051 4.581-4.581v-4.581c0-2.53-2.051-4.581-4.581-4.581s-4.581 2.051-4.581 4.581v4.581c0 2.53 2.051 4.581 4.581 4.581z" fill="#ffffff" fill-opacity="1" data-original-color="#000000ff" stroke="none" stroke-opacity="1"/><path d="m109.935 247.355c-2.53 0-4.581 2.051-4.581 4.581s2.051 4.581 4.581 4.581h54.968c2.53 0 4.581-2.051 4.581-4.581s-2.051-4.581-4.581-4.581z" fill="#ffffff" fill-opacity="1" data-original-color="#000000ff" stroke="none" stroke-opacity="1"/><path d="m143.342 90.271c1.82 1.758 4.719 1.707 6.477-.112 1.715-1.775 1.715-4.589 0-6.365l-5.497-5.497c16.938 1.98 32.218 11.117 41.977 25.102 1.447 2.076 4.303 2.585 6.379 1.138s2.585-4.303 1.138-6.379c-11.644-16.644-30.052-27.287-50.286-29.073l6.294-6.294c1.757-1.82 1.707-4.72-.113-6.477-1.775-1.714-4.589-1.714-6.364 0l-13.742 13.742c-1.788 1.789-1.788 4.688 0 6.477z" fill="#ffffff" fill-opacity="1" data-original-color="#000000ff" stroke="none" stroke-opacity="1"/><path d="m125.02 212.052c-1.82 1.758-1.87 4.657-.112 6.477s4.657 1.87 6.477.112c.038-.037.076-.074.112-.112l13.742-13.742c1.788-1.789 1.788-4.688 0-6.477l-13.742-13.742c-1.82-1.758-4.72-1.707-6.477.112-1.715 1.775-1.715 4.589 0 6.365l5.497 5.497c-15.1-1.744-28.959-9.207-38.725-20.856-1.629-1.937-4.52-2.186-6.456-.557-1.937 1.629-2.186 4.52-.557 6.456 11.68 13.904 28.4 22.607 46.489 24.2z" fill="#ffffff" fill-opacity="1" data-original-color="#000000ff" stroke="none" stroke-opacity="1"/></g></g></svg>