<svg version="1.1" id="Capa_1" xmlns="http://www.w3.org/2000/svg" xmlns:xlink="http://www.w3.org/1999/xlink" x="0px" y="0px" viewBox="0 0 512 512" style="enable-background:new 0 0 512 512;" xml:space="preserve" width="300" height="300" xmlns:svgjs="http://svgjs.dev/svgjs"><g width="100%" height="100%" transform="matrix(1,0,0,1,0,0)"><g>
	<g>
		<path d="M160.2,349.838c-5.511,0-10,4.49-10,10s4.489,10,10,10c5.51,0,10-4.49,10-10S165.71,349.838,160.2,349.838z" fill="#ffffff" fill-opacity="1" data-original-color="#000000ff" stroke="none" stroke-opacity="1"/>
	</g>
</g><g>
	<g>
		<path d="M160.2,253.838c-5.511,0-10,4.49-10,10v56c0,5.51,4.489,10,10,10c5.51,0,10-4.49,10-10v-56&#10;&#9;&#9;&#9;C170.2,258.328,165.71,253.838,160.2,253.838z" fill="#ffffff" fill-opacity="1" data-original-color="#000000ff" stroke="none" stroke-opacity="1"/>
	</g>
</g><g>
	<g>
		<path d="M200.2,349.838c-5.511,0-10,4.49-10,10s4.489,10,10,10c5.52,0,10-4.49,10-10S205.72,349.838,200.2,349.838z" fill="#ffffff" fill-opacity="1" data-original-color="#000000ff" stroke="none" stroke-opacity="1"/>
	</g>
</g><g>
	<g>
		<path d="M200.2,277.838c-5.511,0-10,4.49-10,10v32c0,5.51,4.489,10,10,10c5.52,0,10-4.49,10-10v-32&#10;&#9;&#9;&#9;C210.2,282.328,205.72,277.838,200.2,277.838z" fill="#ffffff" fill-opacity="1" data-original-color="#000000ff" stroke="none" stroke-opacity="1"/>
	</g>
</g><g>
	<g>
		<path d="M482,0H30C13.458,0,0,13.458,0,30v452c0,16.542,13.458,30,30,30h207.5c16.542,0,30-13.458,30-30v-22.663h20.37&#10;&#9;&#9;&#9;l12.124,45.247c1.171,4.372,5.133,7.412,9.659,7.412h165.449c0.007,0.001,0.015,0,0.02,0c5.523,0,10-4.478,10-10&#10;&#9;&#9;&#9;c0-1.121-0.184-2.199-0.524-3.205l-23.607-88.825c-0.682-2.566-2.356-4.757-4.655-6.087c-2.298-1.33-5.03-1.692-7.597-1.004&#10;&#9;&#9;&#9;l-27.385,7.338c0.334-12.897,0.376-33.648-1.462-57.492c-0.828-10.757-3.532-29.688-8.786-52.721H482c16.542,0,30-13.458,30-30V30&#10;&#9;&#9;&#9;C512,13.458,498.542,0,482,0z M389.394,139.996h-47.192v-20h42.192L389.394,139.996z M356.928,250.227&#10;&#9;&#9;&#9;c1.958,2.683,5,4.104,8.084,4.104c2.046,0,4.11-0.626,5.889-1.925l4.71-3.439c2.593,7.356,5.052,14.911,7.353,22.673&#10;&#9;&#9;&#9;c11.775,39.72,16.254,73.104,16.985,82.616c2.076,26.929,1.636,50.185,1.208,61.367l-55.398,14.844&#10;&#9;&#9;&#9;c-10.67-62.299-41.844-99.347-43.242-100.981c-0.168-0.197-0.344-0.387-0.526-0.57l-33.104-33.104l14.169-15.029l42.213,40.584&#10;&#9;&#9;&#9;c2.891,2.779,7.162,3.561,10.849,1.992c3.688-1.571,6.082-5.192,6.082-9.201V178.033c9.557,15.229,18.296,32.543,26.051,51.544&#10;&#9;&#9;&#9;l-9.144,6.676C354.646,239.511,353.671,245.767,356.928,250.227z M254.229,235.34c-6.633-0.381-13.365,1.426-19.02,5.416&#10;&#9;&#9;&#9;c-2.934,0.379-5.941,0.584-9.008,0.584c-30.879,0-56-19.963-56-44.5c0-24.537,25.121-44.5,56-44.5c30.879,0,56,19.963,56,44.5&#10;&#9;&#9;&#9;C282.201,213.265,270.935,227.63,254.229,235.34z M268.639,266.922l-13.899,14.743l-9.318-9.318&#10;&#9;&#9;&#9;c-3.504-3.504-3.849-8.977-1.058-12.882c4.134-0.864,8.135-2.012,11.973-3.425c1.176,0.487,2.278,1.205,3.232,2.159l0.141,0.138&#10;&#9;&#9;&#9;L268.639,266.922z M70.201,20h312v79.996h-40v-40h10c5.522,0,10-4.478,10-10c0-5.522-4.478-10-10-10h-252c-5.522,0-10,4.478-10,10&#10;&#9;&#9;&#9;c0,5.522,4.478,10,10,10h10v40h-40V20z M130.201,400.346c19.562,3.987,35.006,19.43,38.993,38.991h-38.993V400.346z&#10;&#9;&#9;&#9; M68.009,119.996h42.192v20H63.009L68.009,119.996z M20,30c0-5.514,4.486-10,10-10h20.201v88.766L40.5,147.57&#10;&#9;&#9;&#9;c-0.747,2.988-0.076,6.152,1.819,8.58c1.895,2.427,4.803,3.846,7.882,3.846h60v40H20V30z M20,220.449l1.004-0.453h89.197v20&#10;&#9;&#9;&#9;H21.004L20,239.643V220.449z M20,259.996h90.201V280H20V259.996z M247.5,482c0,5.514-4.486,10-10,10H30c-5.514,0-10-4.486-10-10&#10;&#9;&#9;&#9;V300h90.201v149.337c0,5.522,4.478,10,10,10H247.5V482z M262.923,439.337h-73.448c-4.4-30.607-28.667-54.873-59.274-59.271V59.996&#10;&#9;&#9;&#9;H150.2v68.842c0,5.51,4.489,10,10,10c5.52,0,10-4.49,10-10V59.996h20v44.842c0,5.51,4.489,10,10,10c5.51,0,10-4.49,10-10V59.996&#10;&#9;&#9;&#9;h72.001v67.844c0,5.522,4.478,10,10,10c5.522,0,10-4.478,10-10V59.996h20L322.2,290.672l-19.999-19.227v-6.605&#10;&#9;&#9;&#9;c0-5.522-4.478-10-10-10c-2.046,0-3.947,0.617-5.532,1.672l-11.113-10.684c16.291-11.839,26.645-29.401,26.645-48.988&#10;&#9;&#9;&#9;c0-35.565-34.094-64.5-76-64.5s-76,28.935-76,64.5c0,34.591,32.254,62.9,72.576,64.426c-1.197,8.957,1.633,18.354,8.501,25.223&#10;&#9;&#9;&#9;l50.923,50.923v23.209c0,5.522,4.478,10,10,10c4.297,0,7.951-2.716,9.366-6.522c2.962,5.313,6.124,11.546,9.214,18.645&#10;&#9;&#9;&#9;C285.707,390.821,266.76,412.656,262.923,439.337z M283.208,439.337c3.691-18.108,17.204-32.677,34.709-37.905&#10;&#9;&#9;&#9;c1.529,4.612,2.974,9.455,4.284,14.542v20.807l-9.54,2.556H283.208z M444.235,424.787l6.306,23.726l-28.349,2.904&#10;&#9;&#9;&#9;c-5.494,0.563-9.491,5.474-8.929,10.968c0.527,5.147,4.871,8.981,9.937,8.981c0.34,0,0.685-0.018,1.031-0.053l31.511-3.228&#10;&#9;&#9;&#9;l6.355,23.911H317.326l-8.301-30.979L444.235,424.787z M492,270c0,5.514-4.486,10-10,10h-75.866&#10;&#9;&#9;&#9;c-1.746-6.492-3.674-13.181-5.801-20.004H492V270z M492,239.587l-0.996,0.409h-97.375c-2.383-6.633-4.953-13.318-7.72-20h105.095&#10;&#9;&#9;&#9;l0.996,0.318V239.587z M492,199.996H376.993c-6.623-13.807-14.149-27.322-22.669-40h47.877c3.079,0,5.987-1.419,7.882-3.846&#10;&#9;&#9;&#9;c1.896-2.428,2.566-5.592,1.819-8.58l-9.701-38.805V20H482c5.514,0,10,4.486,10,10V199.996z" fill="#ffffff" fill-opacity="1" data-original-color="#000000ff" stroke="none" stroke-opacity="1"/>
	</g>
</g><g>
</g><g>
</g><g>
</g><g>
</g><g>
</g><g>
</g><g>
</g><g>
</g><g>
</g><g>
</g><g>
</g><g>
</g><g>
</g><g>
</g><g>
</g></g></svg>