<svg id="Capa_1" enable-background="new 0 0 512 512" height="512" viewBox="0 0 512 512" width="512" xmlns="http://www.w3.org/2000/svg"><g><path d="m429.384 89.618c-.008-.007-.013-.012-.021-.019l-72.841-25.064-127.155 25.065v55.467l208.299 34.365 37.145-34.365c-12.077-20.867-27.464-39.594-45.427-55.449z" fill="#e7a52e"/><g fill="#e7a52e"><path d="m429.365 422.4-95.074-18.089-104.924 18.089v55.467h53.266c55.705 0 106.612-20.532 145.573-54.439"/><path d="m229.367 366.933 150.01 21.715 95.434-21.715c9.932-17.168 17.634-35.788 22.699-55.467l-111.598-32.173-156.545 32.173z"/></g><path d="m497.509 200.533-68.144-40.701-199.998 40.701v55.467l218.373 39.43 56.76-39.43c0-19.156-2.425-37.738-6.991-55.467z" fill="#e7a52e"/><path d="m473.564 256c0-122.534-99.333-221.867-221.867-221.867-7.538 0-14.986.38-22.33 1.114v441.506c7.344.734 14.793 1.114 22.33 1.114 122.534 0 221.867-99.333 221.867-221.867z" fill="#e28424"/><path d="m429.365 89.6c-39.11-34.514-90.471-55.467-146.732-55.467h-53.266v55.467z" fill="#c85929"/><path d="m229.367 200.533h268.143c-5.065-19.679-12.767-38.299-22.699-55.467h-245.444z" fill="#c85929"/><path d="m229.367 311.466h268.143c4.563-17.728 6.99-36.314 6.99-55.467h-275.133z" fill="#c85929"/><path d="m229.367 422.4h199.998c17.975-15.863 33.366-34.585 45.445-55.467h-245.443z" fill="#c85929"/><path d="m443.875 366.933h-214.508v55.467h169.063c17.975-15.863 33.365-34.585 45.445-55.467z" fill="#b94029"/><path d="m473.564 256h-244.197v55.467h237.207c4.563-17.729 6.99-36.315 6.99-55.467z" fill="#b94029"/><path d="m443.875 145.066h-214.508v55.467h237.207c-5.065-19.679-12.768-38.299-22.699-55.467z" fill="#b94029"/><path d="m251.697 34.133c-7.538 0-14.986.38-22.33 1.114v54.353h169.063c-39.111-34.514-90.471-55.467-146.733-55.467z" fill="#b94029"/><circle cx="229.367" cy="256" fill="#fbf4af" r="221.867"/><path d="m229.367 34.133c-4.032 0-8.038.114-12.017.327 116.945 6.243 209.85 103.039 209.85 221.54s-92.905 215.297-209.85 221.54c3.979.212 7.985.327 12.017.327 122.534 0 221.867-99.333 221.867-221.867s-99.334-221.867-221.867-221.867z" fill="#f4d8a5"/><path d="m421.535 145.051c-19.48-33.668-47.552-61.74-81.22-81.22l-110.948 192.169z" fill="#f6e266"/><path d="m403.228 155.621 18.319-10.563c-.003-.005-.021-.036-.023-.04-19.098-32.996-47.017-61.414-81.218-81.2l-6.503 11.294c29.164 20.749 53.091 48.372 69.425 80.509z" fill="#eab14d"/><g fill="#f6e266"><path d="m229.367 34.133c-40.419 0-78.311 10.813-110.949 29.698l110.949 192.169z"/><path d=""/><path d="m229.366 256h.001z"/><path d=""/><path d=""/><path d="m229.367 256v221.867c40.419 0 78.311-10.814 110.949-29.698z"/></g><path d="m340.274 448.2c.005-.003.048-.028.053-.031l-6.525-11.282c-30.105 21.418-65.781 35.51-104.436 39.674v1.305c37.941.001 76.188-9.582 110.908-29.666z" fill="#eab14d"/><path d="m229.367 256 192.169 110.948c18.884-32.638 29.698-70.529 29.698-110.948z" fill="#f6e266"/><path d="m427.199 256c0 36.13-8.65 70.235-23.971 100.378l18.308 10.582c19.037-32.892 29.698-70.935 29.698-110.961h-24.035z" fill="#eab14d"/><path d="m229.367 256-192.169-110.949c-18.885 32.638-29.698 70.529-29.698 110.949z" fill="#f6e266"/><path d="m229.366 256-192.168 110.948c19.48 33.668 47.552 61.74 81.22 81.221z" fill="#f6e266"/><circle cx="229.367" cy="256" fill="#e7a52e" r="154.004"/><path d="m229.367 101.995c-3.852 0-7.67.146-11.451.424 79.706 5.859 142.553 72.378 142.553 153.581s-62.848 147.721-142.554 153.58c3.781.278 7.599.424 11.451.424 85.054 0 154.004-68.95 154.004-154.004s-68.949-154.005-154.003-154.005z" fill="#e28424"/><path d="m512 256c0-126.763-102.585-229.367-229.367-229.367h-53.267c-59.659 0-116.174 22.8-159.133 64.198-2.982 2.874-3.07 7.622-.196 10.604 2.875 2.983 7.623 3.071 10.604.196 10.837-10.443 22.605-19.608 35.097-27.442l26.491 45.884c-19.545 12.573-36.215 29.244-48.788 48.789l-45.894-26.497c4.139-6.583 8.653-12.984 13.549-19.178 2.568-3.249 2.017-7.966-1.233-10.534-3.249-2.569-7.967-2.017-10.534 1.233-32.271 40.828-49.329 89.97-49.329 142.114 0 126.764 102.583 229.367 229.366 229.367h53.267c127.675 0 229.367-103.691 229.367-229.367zm-85.498 158.9h-31.74c11.973-12.45 22.382-26.017 31.126-40.467h35.449c-9.463 14.254-21.021 27.956-34.835 40.467zm-189.636-373.124c32.997 1.127 64.699 9.67 93.173 24.854l-26.517 45.927c-20.129-10.448-42.721-16.782-66.656-17.881zm106.148 32.38c27.467 17.24 50.948 40.715 68.196 68.196l-45.918 26.51c-12.573-19.545-29.244-36.215-48.789-48.789zm148.599 229.811h-37.891c2.794-13.2 4.438-26.728 4.876-40.467h38.257c-.45 13.261-2.13 26.843-5.242 40.467zm5.243-55.467h-38.257c-.439-13.739-2.082-27.267-4.876-40.467h37.914c2.996 13.17 4.749 26.706 5.219 40.467zm-9.252-55.467h-37.589c-3.967-13.979-9.25-27.521-15.804-40.467h36.223c7.113 12.885 12.867 26.448 17.17 40.467zm-68.868-37.706c15.184 28.474 23.726 60.176 24.853 93.173h-52.899c-1.1-23.936-7.433-46.528-17.882-66.657zm-28.04 108.173h52.894c-1.127 32.997-9.67 64.699-24.853 93.172l-45.863-26.479c10.698-20.582 16.76-43.165 17.822-66.693zm43.515 95.934c6.553-12.946 11.837-26.487 15.804-40.467h37.63c-4.296 14.051-10.046 27.598-17.156 40.467zm27.176-221.868h-35.5c-8.744-14.45-19.153-28.017-31.126-40.467h31.768c13.104 11.894 24.857 25.439 34.858 40.467zm-53.35-55.466h-29.09c-18.192-15.697-38.474-28.261-60.175-37.444 32.305 5.453 62.713 18.21 89.265 37.444zm-279.318-15.426c28.506-15.193 60.23-23.765 93.147-24.897v52.898c-23.936 1.1-46.527 7.433-66.656 17.882zm100.647 42.821c80.783 0 146.505 65.722 146.505 146.505 0 25.976-6.667 50.849-19.412 72.932-.07.108-.144.211-.21.324-.067.115-.12.234-.18.352-3.133 5.363-6.622 10.561-10.467 15.565-2.523 3.284-1.907 7.993 1.378 10.517s7.994 1.907 10.517-1.378c2.786-3.626 5.402-7.343 7.85-11.143l45.863 26.479c-17.239 27.467-40.716 50.948-68.196 68.196l-26.491-45.885c6.756-4.334 13.221-9.181 19.321-14.535 3.113-2.731 3.422-7.471.689-10.584s-7.471-3.423-10.584-.689c-26.713 23.442-61.014 36.354-96.584 36.354-80.782 0-146.504-65.722-146.504-146.504.001-80.784 65.723-146.506 146.505-146.506zm-7.5 307.829v52.9c-32.997-1.127-64.699-9.67-93.172-24.854l26.516-45.928c20.129 10.449 42.72 16.782 66.656 17.882zm15 52.9v-52.896c23.387-1.084 46.109-7.231 66.67-17.864l26.504 45.906c-28.475 15.184-60.176 23.726-93.174 24.854zm-221.722-206.724h52.899c1.1 23.936 7.433 46.527 17.881 66.656l-45.927 26.516c-15.184-28.474-23.726-60.175-24.853-93.172zm70.78-81.657c-10.449 20.129-16.782 42.721-17.882 66.657h-52.905c1.115-33 9.589-64.577 24.878-93.162zm-38.401 187.804 45.918-26.51c12.573 19.545 29.244 36.216 48.789 48.789l-26.51 45.918c-27.464-17.237-50.949-40.716-68.197-68.197zm331.425 60.253h29.089c-26.552 19.233-56.96 31.99-89.264 37.443 21.701-9.182 41.982-21.746 60.175-37.443z"/></g></svg>