<svg id="Capa_1" enable-background="new 0 0 512 512" height="512" viewBox="0 0 512 512" width="512" xmlns="http://www.w3.org/2000/svg"><g><path d="m384 256-128 256c-34.71 0-67.8-6.92-97.99-19.44l-83.03-55.54c-23.58-23.58-42.57-51.75-55.54-83.03l-19.44-97.99c0-34.71 6.92-67.8 19.44-97.99l55.54-83.03c23.58-23.58 51.75-42.57 83.03-55.54l97.99-19.44z" fill="#ffb74a"/><path d="m512 256c0 34.71-6.92 67.8-19.44 97.99l-55.54 83.03c-23.58 23.58-51.75 42.57-83.03 55.54l-97.99 19.44v-512c34.71 0 67.8 6.92 97.99 19.44l83.03 55.54c23.58 23.58 42.57 51.75 55.54 83.03z" fill="#ff7c3f"/><path d="m423.02 325.18 69.54 28.81c-12.97 31.28-31.96 59.45-55.54 83.03l-53.21-53.21c-16.65 16.65-36.53 30.05-58.63 39.21l28.81 69.54c-30.19 12.52-63.28 19.44-97.99 19.44v-75.25c-24.51 0-47.87-4.89-69.18-13.73l-28.81 69.54c-31.28-12.97-59.45-31.96-83.03-55.54l53.21-53.21c-16.65-16.65-30.05-36.53-39.21-58.63l-69.54 28.81c-12.52-30.19-19.44-63.28-19.44-97.99h75.25c0-24.51 4.89-47.87 13.73-69.18l-69.54-28.81c12.97-31.28 31.96-59.45 55.54-83.03l53.21 53.21c16.65-16.65 36.53-30.05 58.63-39.21l-28.81-69.54c30.19-12.52 63.28-19.44 97.99-19.44v75.25c24.51 0 47.87 4.89 69.18 13.73l28.81-69.54c31.28 12.97 59.45 31.96 83.03 55.54l-53.21 53.21c16.65 16.65 30.05 36.53 39.21 58.63l69.54-28.81c12.52 30.19 19.44 63.28 19.44 97.99h-75.25c0 24.51-4.89 47.87-13.73 69.18z" fill="#5f3463"/><path d="m423.02 325.18 69.54 28.81c-12.97 31.28-31.96 59.45-55.54 83.03l-53.21-53.21c-16.65 16.65-36.53 30.05-58.63 39.21l28.81 69.54c-30.19 12.52-63.28 19.44-97.99 19.44v-436.75c24.51 0 47.87 4.89 69.18 13.73l28.81-69.54c31.28 12.97 59.45 31.96 83.03 55.54l-53.21 53.21c16.65 16.65 30.05 36.53 39.21 58.63l69.54-28.81c12.52 30.19 19.44 63.28 19.44 97.99h-75.25c0 24.51-4.89 47.87-13.73 69.18z" fill="#462347"/><circle cx="256" cy="256" fill="#f4f2ff" r="180.75"/><path d="m436.75 256c0 99.83-80.92 180.75-180.75 180.75v-361.5c99.83 0 180.75 80.92 180.75 180.75z" fill="#e2dff5"/><path d="m90.25 256c0-91.4 74.35-165.75 165.75-165.75l11.479-15-11.479-15c-107.94 0-195.75 87.81-195.75 195.75s87.81 195.75 195.75 195.75l11.479-15-11.479-15c-91.4 0-165.75-74.35-165.75-165.75z" fill="#ffec45"/><path d="m256 60.25v30c91.4 0 165.75 74.35 165.75 165.75s-74.35 165.75-165.75 165.75v30c107.94 0 195.75-87.81 195.75-195.75s-87.81-195.75-195.75-195.75z" fill="#ffb74a"/><path d="m243.99 140.57-31.58 63.97-70.59 10.26-7.43 22.85 51.09 49.8-12.06 70.31 19.44 14.12 63.14-33.19 21.236-81.28-21.236-116.84z" fill="#ffb74a"/><path d="m377.61 237.65-7.43-22.85-70.59-10.26-31.58-63.97h-12.01v198.12l63.14 33.19 19.44-14.12-12.06-70.31z" fill="#ff7c3f"/></g></svg>