<svg clip-rule="evenodd" fill-rule="evenodd" height="3in" image-rendering="optimizeQuality" shape-rendering="geometricPrecision" text-rendering="geometricPrecision" viewBox="0 0 3000 3000" width="3in" xmlns="http://www.w3.org/2000/svg"><g id="Layer_x0020_1"><circle cx="1500" cy="1500" fill="#f0b537" r="1500"/><g id="_114431736"><g><circle cx="1500" cy="1500" fill="#be161d" r="853"/><g><circle cx="1500" cy="1500" fill="#ed1c24" r="759"/><g fill="#f6f6e7"><path d="m1500 741c58 0 114 7 168 19l-33 156h-270l-33-156c54-12 110-19 168-19z"/><path d="m2037 963c40 41 76 85 105 132l-134 87-190-190 87-134c47 29 91 65 132 105z"/><path d="m2259 1500c0 58-7 114-19 168l-156-33v-270l156-33c12 54 19 110 19 168z"/><path d="m2037 2037c-41 40-85 76-132 105l-87-134 190-190 134 87c-29 47-65 91-105 132z"/><path d="m1500 2259c-58 0-114-7-168-19l33-156h270l33 156c-54 12-110 19-168 19z"/><path d="m963 2037c-40-41-76-85-105-132l134-87 190 190-87 134c-47-29-91-65-132-105z"/><path d="m741 1500c0-58 7-114 19-168l156 33v270l-156 33c-12-54-19-110-19-168z"/><path d="m963 963c41-40 85-76 132-105l87 134-190 190-134-87c29-47 65-91 105-132z"/><circle cx="1500" cy="1500" r="463"/><g><path d="m1483 916c0-10 8-17 17-17s17 7 17 17v121c0 10-8 17-17 17s-17-7-17-17z"/><path d="m1901 1075c7-7 18-7 24 0 7 6 7 17 0 24l-86 86c-6 7-17 7-24 0s-7-18 0-24z"/><path d="m2084 1483c10 0 17 8 17 17s-7 17-17 17h-121c-10 0-17-8-17-17s7-17 17-17z"/><path d="m1925 1901c7 7 7 18 0 24-6 7-17 7-24 0l-86-86c-7-6-7-17 0-24s18-7 24 0z"/><path d="m1517 2084c0 10-8 17-17 17s-17-7-17-17v-121c0-10 8-17 17-17s17 7 17 17z"/><path d="m1099 1925c-7 7-18 7-24 0-7-6-7-17 0-24l86-86c6-7 17-7 24 0s7 18 0 24z"/><path d="m916 1517c-10 0-17-8-17-17s7-17 17-17h121c10 0 17 8 17 17s-7 17-17 17z"/><path d="m1075 1099c-7-7-7-18 0-24 6-7 17-7 24 0l86 86c7 6 7 17 0 24s-18 7-24 0z"/></g></g><circle cx="1500" cy="1500" fill="#be161d" r="370"/></g></g><g fill="#f6f6e7"><path d="m1287 1407c0-9 7-16 16-16s17 7 17 16v184c0 10-8 17-17 17s-16-7-16-17z"/><path d="m1444 1391c20 0 38 8 51 21s22 32 22 52v72c0 20-9 39-22 52s-31 21-51 21-38-8-52-21c-13-13-21-32-21-52v-72c0-20 8-39 21-52 14-13 32-21 52-21zm28 45c-7-7-17-12-28-12s-21 5-28 12-12 17-12 28v72c0 11 5 21 12 28s17 12 28 12 21-5 28-12 11-17 11-28v-72c0-11-4-21-11-28z"/><path d="m1641 1391c20 0 38 8 51 21s21 32 21 52v72c0 20-8 39-21 52s-31 21-51 21-39-8-52-21c-13-13-21-32-21-52v-72c0-20 8-39 21-52 1 0 1 0 1-1 13-12 31-20 51-20zm27 45c-7-7-17-12-27-12-11 0-20 4-28 11v1c-7 7-12 17-12 28v72c0 11 5 21 12 28 7 7 17 12 28 12 10 0 20-5 27-12 8-7 12-17 12-28v-72c0-11-4-21-12-28z"/></g></g></g></svg>